<svg id="_1-Computer_Security" data-name="1-Computer Security" xmlns="http://www.w3.org/2000/svg" viewBox="0 0 48 48"><title>1-Computer Security</title><rect x="4" y="26" width="40" height="2"/><path d="M31,44H17a1,1,0,0,1-.992-1.124l1-8A1,1,0,0,1,18,34H30a1,1,0,0,1,.992.876l1,8A1,1,0,0,1,31,44ZM18.133,42H29.867l-.75-6H18.883Z"/><path d="M33,48H15a2,2,0,0,1-2-2V43a1,1,0,0,1,1-1H34a1,1,0,0,1,1,1v3A2,2,0,0,1,33,48ZM15,44v2H33V44Z"/><path d="M45,36H3a3,3,0,0,1-3-3V3A3,3,0,0,1,3,0H29V2H3A1,1,0,0,0,2,3V33a1,1,0,0,0,1,1H45a1,1,0,0,0,1-1V23h2V33A3,3,0,0,1,45,36Z"/><rect x="11" y="46" width="26" height="2"/><path d="M7,24H5V6A1,1,0,0,1,6,5H26V7H7Z"/><path d="M43,22H31a3,3,0,0,1-3-3V8a1,1,0,0,1,1-1H45a1,1,0,0,1,1,1V19A3,3,0,0,1,43,22ZM30,9V19a1,1,0,0,0,1,1H43a1,1,0,0,0,1-1V9Z"/><path d="M43,8H41V2.007c-.012.007-.062-.009-.062-.009L33.009,2c.009.007,0,.044-.009.08V8H31V2a2.045,2.045,0,0,1,2-2h8a2.017,2.017,0,0,1,2,2Z"/><rect x="26" y="11" width="22" height="2"/><path d="M22,15H10a1,1,0,0,1-1-1V10a1,1,0,0,1,1-1H22v2H11v2H22Z"/><path d="M25,23H10a1,1,0,0,1-1-1V18a1,1,0,0,1,1-1H25v2H11v2H25Z"/><rect x="36" y="15" width="2" height="2"/></svg>