<svg xmlns="http://www.w3.org/2000/svg" viewBox="0 0 48 48"><title>10-Web Security</title><g id="_10-Web_Security" data-name="10-Web Security"><path d="M43,48H5a5.006,5.006,0,0,1-5-5V5A5.006,5.006,0,0,1,5,0H43a5.006,5.006,0,0,1,5,5V43A5.006,5.006,0,0,1,43,48ZM5,2A3,3,0,0,0,2,5V43a3,3,0,0,0,3,3H43a3,3,0,0,0,3-3V5a3,3,0,0,0-3-3Z"/><rect x="4" y="8" width="40" height="2"/><rect x="5" y="4" width="2" height="2"/><rect x="9" y="4" width="2" height="2"/><rect x="41" y="4" width="2" height="2"/><path d="M39,22H38V20h1V16H9v4H22v2H9a2,2,0,0,1-2-2V16a2,2,0,0,1,2-2H39a2,2,0,0,1,2,2v4A2,2,0,0,1,39,22Z"/><path d="M16,33H9a2,2,0,0,1-2-2V27a2,2,0,0,1,2-2H19v2H9v4h7Z"/><path d="M36,42H24a3,3,0,0,1-3-3V28a1,1,0,0,1,1-1H38a1,1,0,0,1,1,1V39A3,3,0,0,1,36,42ZM23,29V39a1,1,0,0,0,1,1H36a1,1,0,0,0,1-1V29Z"/><path d="M36,28H34V22.007A.168.168,0,0,1,33.937,22l-7.928,0c.009.007,0,.044-.009.08V28H24V22a2.046,2.046,0,0,1,2-2h8a2.017,2.017,0,0,1,2,2Z"/><rect x="19" y="31" width="22" height="2"/><rect x="29" y="35" width="2" height="2"/><rect x="7" y="35" width="2" height="2"/><rect x="11" y="35" width="2" height="2"/><rect x="7" y="39" width="10" height="2"/></g></svg>