<svg xmlns="http://www.w3.org/2000/svg" viewBox="0 0 48 48"><title>16-Web Security</title><g id="_16-Web_Security" data-name="16-Web Security"><path d="M43,48H5a5.006,5.006,0,0,1-5-5V5A5.006,5.006,0,0,1,5,0H26V2H5A3,3,0,0,0,2,5V43a3,3,0,0,0,3,3H43a3,3,0,0,0,3-3V5a3,3,0,0,0-3-3H32V0H43a5.006,5.006,0,0,1,5,5V43A5.006,5.006,0,0,1,43,48Z"/><rect x="4" y="8" width="22" height="2"/><rect x="5" y="4" width="2" height="2"/><rect x="9" y="4" width="2" height="2"/><rect x="41" y="4" width="2" height="2"/><path d="M28,22H9a2,2,0,0,1-2-2V16a2,2,0,0,1,2-2H27v2H9v4H28Z"/><path d="M39,33H35V31h4V27H35V25h4a2,2,0,0,1,2,2v4A2,2,0,0,1,39,33Z"/><path d="M20,33H9a2,2,0,0,1-2-2V27a2,2,0,0,1,2-2H29v2H9v4H20Z"/><path d="M15,42H9a2,2,0,0,1-2-2V37a1,1,0,0,1,1-1h8a1,1,0,0,1,1,1v3A2,2,0,0,1,15,42ZM9,38v2h6V38Z"/><path d="M27,42H21a2,2,0,0,1-2-2V37a1,1,0,0,1,1-1h1v4h8A2,2,0,0,1,27,42Z"/><rect x="39" y="36" width="2" height="2"/><rect x="35" y="36" width="2" height="2"/><rect x="32" y="40" width="9" height="2"/><path d="M29,38H26a3.888,3.888,0,0,1-4-4V30a1,1,0,0,1,1-1h3v2H24v3a1.882,1.882,0,0,0,2,2h3a1.883,1.883,0,0,0,2-2V22h2V34A3.887,3.887,0,0,1,29,38Z"/><path d="M38,21H34V19h4a.918.918,0,0,0,1-1.012V15a.919.919,0,0,0-1.012-1H31a2.916,2.916,0,0,1-3-3V0h2V11a.915.915,0,0,0,1,1h7a2.916,2.916,0,0,1,3,3v3A2.916,2.916,0,0,1,38,21Z"/><rect x="32" y="8" width="12" height="2"/><path d="M33,23a3,3,0,1,1,3-3A3,3,0,0,1,33,23Zm0-4a1,1,0,1,0,1,1A1,1,0,0,0,33,19Z"/></g></svg>