<svg xmlns="http://www.w3.org/2000/svg" viewBox="0 0 48 48"><title>18-Server Security</title><g id="_18-Server_Security" data-name="18-Server Security"><path d="M45,24H3a3,3,0,0,1-3-3V11A3,3,0,0,1,3,8H45a3,3,0,0,1,3,3V21A3,3,0,0,1,45,24ZM3,10a1,1,0,0,0-1,1V21a1,1,0,0,0,1,1H45a1,1,0,0,0,1-1V11a1,1,0,0,0-1-1Z"/><path d="M23,42H3a3,3,0,0,1-3-3V29a3,3,0,0,1,3-3H29v2H3a1,1,0,0,0-1,1V39a1,1,0,0,0,1,1H23Z"/><path d="M26,48H6a1,1,0,0,1-1-1V44H7v2H26Z"/><rect x="4" y="23" width="2" height="4"/><path d="M43,10H5A1,1,0,0,1,4,9V5A1,1,0,0,1,5,4H8V1A1,1,0,0,1,9,0H39a1,1,0,0,1,1,1V4h3a1,1,0,0,1,1,1V9A1,1,0,0,1,43,10ZM6,8H42V6H39a1,1,0,0,1-1-1V2H10V5A1,1,0,0,1,9,6H6Z"/><rect x="12" y="4" width="24" height="2"/><rect x="5" y="12" width="2" height="8"/><rect x="9" y="12" width="2" height="4"/><rect x="13" y="12" width="2" height="4"/><rect x="9" y="18" width="2" height="2"/><rect x="41" y="31" width="2" height="2"/><rect x="13" y="18" width="2" height="2"/><path d="M42,20H18a1,1,0,0,1-1-1V13a1,1,0,0,1,1-1H42a1,1,0,0,1,1,1v6A1,1,0,0,1,42,20ZM19,18H41V14H19Z"/><path d="M23,38H6a1,1,0,0,1-1-1V31a1,1,0,0,1,1-1H27v2H7v4H23Z"/><path d="M43,48H31a3,3,0,0,1-3-3V34a1,1,0,0,1,1-1H45a1,1,0,0,1,1,1V45A3,3,0,0,1,43,48ZM30,35V45a1,1,0,0,0,1,1H43a1,1,0,0,0,1-1V35Z"/><path d="M43,34H41V28.007A.168.168,0,0,1,40.937,28l-7.928,0c.009.007,0,.044-.009.08V34H31V28a2.046,2.046,0,0,1,2-2h8a2.017,2.017,0,0,1,2,2Z"/><rect x="26" y="37" width="22" height="2"/><rect x="36" y="41" width="2" height="2"/></g></svg>