<svg xmlns="http://www.w3.org/2000/svg" viewBox="0 0 48 48"><title>19-Browser Security</title><g id="_19-Browser_Security" data-name="19-Browser Security"><path d="M43,48H5a5.006,5.006,0,0,1-5-5V5A5.006,5.006,0,0,1,5,0H29V2H5A3,3,0,0,0,2,5V43a3,3,0,0,0,3,3H43a3,3,0,0,0,3-3V23h2V43A5.006,5.006,0,0,1,43,48Z"/><rect x="4" y="8" width="20" height="2"/><rect x="5" y="4" width="2" height="2"/><rect x="9" y="4" width="2" height="2"/><rect x="41" y="4" width="2" height="2"/><rect x="16" y="12" width="2" height="32"/><path d="M26,21H25a2,2,0,0,1-2-2V17a2,2,0,0,1,2-2h1v2H25v2h1Z"/><rect x="38" y="25" width="2" height="2"/><rect x="31" y="29" width="2" height="2"/><rect x="35" y="29" width="7" height="2"/><rect x="23" y="25" width="13" height="2"/><rect x="25" y="33" width="2" height="2"/><rect x="36" y="37" width="4" height="2"/><rect x="23" y="37" width="11" height="2"/><rect x="29" y="33" width="13" height="2"/><rect x="23" y="29" width="6" height="2"/><rect x="6" y="17" width="5" height="2"/><rect x="6" y="22" width="5" height="2"/><rect x="6" y="27" width="5" height="2"/><rect x="6" y="32" width="5" height="2"/><rect x="6" y="37" width="5" height="2"/><path d="M43,22H31a3,3,0,0,1-3-3V8a1,1,0,0,1,1-1H45a1,1,0,0,1,1,1V19A3,3,0,0,1,43,22ZM30,9V19a1,1,0,0,0,1,1H43a1,1,0,0,0,1-1V9Z"/><path d="M43,8H41V2.007A.161.161,0,0,1,40.937,2L33.009,2c.009.007,0,.044-.009.08V8H31V2a2.046,2.046,0,0,1,2-2h8a2.017,2.017,0,0,1,2,2Z"/><rect x="26" y="11" width="22" height="2"/><rect x="36" y="15" width="2" height="2"/></g></svg>