<svg xmlns="http://www.w3.org/2000/svg" viewBox="0 0 48 48"><title>22-Security - Protection</title><g id="_22-Security_-_Protection" data-name="22-Security - Protection"><path d="M43,48H5a5.006,5.006,0,0,1-5-5V5A5.006,5.006,0,0,1,5,0H43a5.006,5.006,0,0,1,5,5V43A5.006,5.006,0,0,1,43,48ZM5,2A3,3,0,0,0,2,5V43a3,3,0,0,0,3,3H43a3,3,0,0,0,3-3V5a3,3,0,0,0-3-3Z"/><rect x="4" y="8" width="40" height="2"/><rect x="5" y="4" width="2" height="2"/><rect x="9" y="4" width="2" height="2"/><rect x="41" y="4" width="2" height="2"/><rect x="5" y="17" width="24" height="2"/><path d="M17,37a.99.99,0,0,1-.419-.092l-9-4.154A1,1,0,0,1,7,31.846V14a1,1,0,0,1,1-1H26a1,1,0,0,1,1,1v5H25V15H9V31.206l7,3.232V23h2V36a1,1,0,0,1-1,1Z"/><rect x="12" y="22" width="10" height="2"/><path d="M38,43H26a3,3,0,0,1-3-3V29a1,1,0,0,1,1-1H40a1,1,0,0,1,1,1V40A3,3,0,0,1,38,43ZM25,30V40a1,1,0,0,0,1,1H38a1,1,0,0,0,1-1V30Z"/><path d="M38,29H36V23.007A.216.216,0,0,1,35.937,23l-7.928,0c.009.007,0,.044-.009.08V29H26V23a2.045,2.045,0,0,1,2-2h8a2.017,2.017,0,0,1,2,2Z"/><rect x="21" y="32" width="22" height="2"/><rect x="31" y="36" width="2" height="2"/><path d="M9,44H5a1,1,0,0,1-1-1V39H6v3H9Z"/></g></svg>