<svg xmlns="http://www.w3.org/2000/svg" viewBox="0 0 48 48"><title>23-Laptop Security</title><g id="_23-Laptop_Security" data-name="23-Laptop Security"><path d="M46,43H2a2,2,0,0,1-2-2V36a1,1,0,0,1,1-1H18a1,1,0,0,1,.895.553L19.618,37h8.764l.723-1.447A1,1,0,0,1,30,35H47a1,1,0,0,1,1,1v5A2,2,0,0,1,46,43ZM2,37v4H46V37H30.618L29.9,38.447A1,1,0,0,1,29,39H19a1,1,0,0,1-.895-.553L17.382,37Z"/><path d="M4,33H2V8A3,3,0,0,1,5,5H20V7H5A1,1,0,0,0,4,8Z"/><path d="M46,33H44V8a1,1,0,0,0-1-1H26V5H43a3,3,0,0,1,3,3Z"/><path d="M42,33H40V11H37V9h4a1,1,0,0,1,1,1Z"/><path d="M8,33H6V10A1,1,0,0,1,7,9H20v2H8Z"/><rect x="4" y="38" width="2" height="2"/><rect x="42" y="38" width="2" height="2"/><path d="M23,30H20a3.887,3.887,0,0,1-4-4V22a1,1,0,0,1,1-1h3v2H18v3a1.883,1.883,0,0,0,2,2h3a1.882,1.882,0,0,0,2-2V19h2v7A3.888,3.888,0,0,1,23,30Z"/><path d="M32,18H28V16h4a.919.919,0,0,0,1-1.012V12a.919.919,0,0,0-1.012-1H25a2.916,2.916,0,0,1-3-3V5h2V8a.915.915,0,0,0,1,1h7a2.916,2.916,0,0,1,3,3v3A2.916,2.916,0,0,1,32,18Z"/><path d="M27,20a3,3,0,1,1,3-3A3,3,0,0,1,27,20Zm0-4a1,1,0,1,0,1,1A1,1,0,0,0,27,16Z"/><path d="M12,18H10V14a1,1,0,0,1,1-1h4v2H12Z"/></g></svg>