<svg xmlns="http://www.w3.org/2000/svg" viewBox="0 0 48 48"><title>26-Mobile Security - Protection</title><g id="_26-Mobile_Security_-_Protection" data-name="26-Mobile Security - Protection"><path d="M39,11H37V3a1,1,0,0,0-1-1H12a1,1,0,0,0-1,1v7H9V3a3,3,0,0,1,3-3H36a3,3,0,0,1,3,3Z"/><path d="M36,48H12a3,3,0,0,1-3-3V36h2v9a1,1,0,0,0,1,1H36a1,1,0,0,0,1-1V36h2v9A3,3,0,0,1,36,48Z"/><rect x="13" y="8" width="22" height="2"/><rect x="13" y="38" width="22" height="2"/><rect x="16" y="4" width="12" height="2"/><rect x="30" y="4" width="2" height="2"/><rect x="23" y="42" width="2" height="2"/><path d="M16,36a.987.987,0,0,1-.419-.092l-9-4.154A1,1,0,0,1,6,30.846V13a1,1,0,0,1,1-1H25a1,1,0,0,1,1,1V30.846a1,1,0,0,1-.581.908l-9,4.154A.987.987,0,0,1,16,36ZM8,30.206,16,33.9l8-3.692V14H8Z"/><rect x="4" y="16" width="24" height="2"/><rect x="15" y="22" width="2" height="13"/><rect x="11" y="21" width="10" height="2"/><path d="M37,34H27V32H37a1,1,0,0,0,1-1V21H29V19H39a1,1,0,0,1,1,1V31A3,3,0,0,1,37,34Z"/><path d="M37,20H35V14.007c-.016.007-.062-.009-.063-.009L29,14V12h6a2.017,2.017,0,0,1,2,2Z"/><rect x="28" y="23" width="14" height="2"/><rect x="30" y="27" width="2" height="2"/></g></svg>