<svg xmlns="http://www.w3.org/2000/svg" viewBox="0 0 48 48"><title>27-Web Security</title><g id="_27-Web_Security" data-name="27-Web Security"><rect x="4" y="26" width="40" height="2"/><path d="M31,44H17a1,1,0,0,1-.992-1.124l1-8A1,1,0,0,1,18,34H30a1,1,0,0,1,.992.876l1,8A1,1,0,0,1,31,44ZM18.133,42H29.867l-.75-6H18.883Z"/><path d="M33,48H15a2,2,0,0,1-2-2V43a1,1,0,0,1,1-1H34a1,1,0,0,1,1,1v3A2,2,0,0,1,33,48ZM15,44v2H33V44Z"/><path d="M45,36H3a3,3,0,0,1-3-3V23H2V33a1,1,0,0,0,1,1H45a1,1,0,0,0,1-1V3a1,1,0,0,0-1-1H39V0h6a3,3,0,0,1,3,3V33A3,3,0,0,1,45,36Z"/><rect x="11" y="46" width="26" height="2"/><path d="M43,24H41V9.414L33.586,2H19V0H34a1,1,0,0,1,.707.293l8,8A1,1,0,0,1,43,9Z"/><path d="M38,10H36a3,3,0,0,1-3-3V1h2V7a1,1,0,0,0,1,1h2Z"/><path d="M17,22H5a3,3,0,0,1-3-3V8A1,1,0,0,1,3,7H19a1,1,0,0,1,1,1V19A3,3,0,0,1,17,22ZM4,9V19a1,1,0,0,0,1,1H17a1,1,0,0,0,1-1V9Z"/><path d="M17,8H15V2.007c-.016.008-.062-.009-.063-.009L7.009,2c.009.007,0,.044-.009.08V8H5V2A2.046,2.046,0,0,1,7,0h8a2.017,2.017,0,0,1,2,2Z"/><rect y="11" width="22" height="2"/><rect x="10" y="15" width="2" height="2"/><path d="M36,22H22V20H36V14H24V12H36a2,2,0,0,1,2,2v6A2,2,0,0,1,36,22Z"/><rect x="32" y="16" width="2" height="2"/><rect x="28" y="16" width="2" height="2"/><rect x="24" y="16" width="2" height="2"/><path d="M29,10H25a1,1,0,0,1-1-1V5a1,1,0,0,1,1-1h4a1,1,0,0,1,1,1V9A1,1,0,0,1,29,10ZM26,8h2V6H26Z"/></g></svg>