<svg xmlns="http://www.w3.org/2000/svg" viewBox="0 0 48 48"><title>29-Email Protection</title><g id="_29-Email_Protection" data-name="29-Email Protection"><rect x="3.308" y="20.5" width="18.385" height="2" transform="translate(-11.542 15.136) rotate(-45)"/><path d="M13,34H3a3,3,0,0,1-3-3V3A3,3,0,0,1,3,0H45a3,3,0,0,1,3,3V19H46V3a1,1,0,0,0-1-1H3A1,1,0,0,0,2,3V31a1,1,0,0,0,1,1H13Z"/><path d="M24,20a.994.994,0,0,1-.611-.208l-22-17L2.611,1.208,24,17.736,45.389,1.208l1.222,1.584-22,17A.994.994,0,0,1,24,20Z"/><path d="M26,48a.987.987,0,0,1-.419-.092l-9-4.154A1,1,0,0,1,16,42.846V25a1,1,0,0,1,1-1h7v2H18V42.206L26,45.9l8-3.692V41h2v1.846a1,1,0,0,1-.581.908l-9,4.154A.987.987,0,0,1,26,48Z"/><rect x="14" y="28" width="10" height="2"/><rect x="25" y="36" width="2" height="11"/><path d="M37,39A11,11,0,1,1,48,28,11.013,11.013,0,0,1,37,39Zm0-20a9,9,0,1,0,9,9A9.01,9.01,0,0,0,37,19Z"/><path d="M35,33a1,1,0,0,1-.707-.293l-3-3,1.414-1.414L35,30.586l7.293-7.293,1.414,1.414-8,8A1,1,0,0,1,35,33Z"/></g></svg>