<svg xmlns="http://www.w3.org/2000/svg" viewBox="0 0 48 48"><title>30-Network Security</title><g id="_30-Network_Security" data-name="30-Network Security"><path d="M15,39H13V35a1.959,1.959,0,0,1,2-2h8V31h2v2a1.959,1.959,0,0,1-2,2H15Z"/><path d="M35,39H33V35H27V33h6a1.959,1.959,0,0,1,2,2Z"/><path d="M14,44a3,3,0,1,1,3-3A3,3,0,0,1,14,44Zm0-4a1,1,0,1,0,1,1A1,1,0,0,0,14,40Z"/><path d="M24,44a3,3,0,1,1,3-3A3,3,0,0,1,24,44Zm0-4a1,1,0,1,0,1,1A1,1,0,0,0,24,40Z"/><path d="M34,44a3,3,0,1,1,3-3A3,3,0,0,1,34,44Zm0-4a1,1,0,1,0,1,1A1,1,0,0,0,34,40Z"/><rect x="23" y="36" width="2" height="3"/><path d="M44,17H42V14H39V12h4a1,1,0,0,1,1,1Z"/><path d="M43,48H5a5.006,5.006,0,0,1-5-5V5A5.006,5.006,0,0,1,5,0H43a5.006,5.006,0,0,1,5,5V43A5.006,5.006,0,0,1,43,48ZM5,2A3,3,0,0,0,2,5V43a3,3,0,0,0,3,3H43a3,3,0,0,0,3-3V5a3,3,0,0,0-3-3Z"/><rect x="4" y="8" width="40" height="2"/><rect x="5" y="4" width="2" height="2"/><rect x="9" y="4" width="2" height="2"/><rect x="41" y="4" width="2" height="2"/><path d="M33,31H31V21H17V31H15V20a1,1,0,0,1,1-1H32a1,1,0,0,1,1,1Z"/><path d="M30,20H28V14.007c-.017.007-.062-.009-.063-.009l-7.928,0c.009.007,0,.044-.009.08V20H18V14a2.046,2.046,0,0,1,2-2h8a2.017,2.017,0,0,1,2,2Z"/><rect x="13" y="23" width="22" height="2"/><rect x="23" y="27" width="2" height="2"/><path d="M6,17H4V13a1,1,0,0,1,1-1H9v2H6Z"/></g></svg>