<svg xmlns="http://www.w3.org/2000/svg" viewBox="0 0 48 48"><title>33-Document Security</title><g id="_33-Document_Security" data-name="33-Document Security"><path d="M46,46H2a2,2,0,0,1-2-2V39a1,1,0,0,1,1-1H18a1,1,0,0,1,.895.553L19.618,40h8.764l.723-1.447A1,1,0,0,1,30,38H47a1,1,0,0,1,1,1v5A2,2,0,0,1,46,46ZM2,40v4H46V40H30.618L29.9,41.447A1,1,0,0,1,29,42H19a1,1,0,0,1-.895-.553L17.382,40Z"/><rect x="4" y="41" width="2" height="2"/><rect x="42" y="41" width="2" height="2"/><path d="M44,36H42V11.414L34.586,4H7A1,1,0,0,0,6,5V36H4V5A3,3,0,0,1,7,2H35a1,1,0,0,1,.707.293l8,8A1,1,0,0,1,44,11Z"/><path d="M39,12H37a3,3,0,0,1-3-3V3h2V9a1,1,0,0,0,1,1h2Z"/><path d="M10,36H8V7A1,1,0,0,1,9,6H32V8H10Z"/><rect x="38" y="14" width="2" height="22"/><path d="M30,34H18a3,3,0,0,1-3-3V20a1,1,0,0,1,1-1H32a1,1,0,0,1,1,1V31A3,3,0,0,1,30,34ZM17,21V31a1,1,0,0,0,1,1H30a1,1,0,0,0,1-1V21Z"/><path d="M30,20H28V14.007c-.01.008-.062-.009-.063-.009l-7.928,0c.009.008,0,.044-.009.08V20H18V14a2.045,2.045,0,0,1,2-2h8a2.017,2.017,0,0,1,2,2Z"/><rect x="13" y="23" width="22" height="2"/><rect x="23" y="27" width="2" height="2"/></g></svg>