<svg xmlns="http://www.w3.org/2000/svg" viewBox="0 0 48 48"><title>34-Mobile Security</title><g id="_34-Mobile_Security" data-name="34-Mobile Security"><path d="M33,23H31V17H17v6H15V16a1,1,0,0,1,1-1H32a1,1,0,0,1,1,1Z"/><path d="M30,16H28V10.007c-.011.008-.062-.009-.063-.009l-7.928,0c.009.008,0,.044-.009.08V16H18V10a2.045,2.045,0,0,1,2-2h8a2.017,2.017,0,0,1,2,2Z"/><rect x="13" y="19" width="22" height="2"/><path d="M37,35H11a2,2,0,0,1-2-2V27a2,2,0,0,1,2-2h8v2H11v6H37V27H29V25h8a2,2,0,0,1,2,2v6A2,2,0,0,1,37,35Z"/><rect x="13" y="29" width="2" height="2"/><rect x="17" y="29" width="2" height="2"/><rect x="21" y="29" width="2" height="2"/><rect x="25" y="29" width="2" height="2"/><rect x="29" y="29" width="2" height="2"/><rect x="33" y="29" width="2" height="2"/><rect x="21" y="25" width="6" height="2"/><rect x="23" y="23" width="2" height="3"/><path d="M39,23H37V3a1,1,0,0,0-1-1H12a1,1,0,0,0-1,1V23H9V3a3,3,0,0,1,3-3H36a3,3,0,0,1,3,3Z"/><path d="M36,48H12a3,3,0,0,1-3-3V37h2v8a1,1,0,0,0,1,1H36a1,1,0,0,0,1-1V37h2v8A3,3,0,0,1,36,48Z"/><rect x="13" y="8" width="3" height="2"/><rect x="13" y="38" width="22" height="2"/><rect x="16" y="4" width="12" height="2"/><rect x="30" y="4" width="2" height="2"/><rect x="23" y="42" width="2" height="2"/><rect x="32" y="8" width="3" height="2"/></g></svg>