<svg xmlns="http://www.w3.org/2000/svg" viewBox="0 0 48 48"><title>35-Email Security</title><g id="_35-Email_Security" data-name="35-Email Security"><path d="M14,48H5a3,3,0,0,1-3-3V17a3,3,0,0,1,3-3H37a3,3,0,0,1,3,3v5H38V17a1,1,0,0,0-1-1H5a1,1,0,0,0-1,1V45a1,1,0,0,0,1,1h9Z"/><path d="M36,13H34V12H8v1H6V11a1,1,0,0,1,1-1H35a1,1,0,0,1,1,1Z"/><path d="M32,11H30V3a1,1,0,0,0-1-1H13a1,1,0,0,0-1,1v8H10V3a3,3,0,0,1,3-3H29a3,3,0,0,1,3,3Z"/><rect y="19" width="42" height="2"/><path d="M11,44H7a1,1,0,0,1-1-1V39H8v3h3Z"/><path d="M45,48H19a3,3,0,0,1-3-3V27a3,3,0,0,1,3-3H45a3,3,0,0,1,3,3V45A3,3,0,0,1,45,48ZM19,26a1,1,0,0,0-1,1V45a1,1,0,0,0,1,1H45a1,1,0,0,0,1-1V27a1,1,0,0,0-1-1Z"/><path d="M32,37a.993.993,0,0,1-.581-.187l-14-10,1.162-1.626L32,34.771l13.419-9.584,1.162,1.626-14,10A.993.993,0,0,1,32,37Z"/><rect x="20.414" y="37.172" width="10.828" height="2" transform="translate(-19.427 29.444) rotate(-45)"/><rect x="37.166" y="32.743" width="2" height="10.846" transform="translate(-15.809 38.166) rotate(-45)"/><rect x="6" y="23" width="2" height="2"/><rect x="10" y="23" width="2" height="2"/></g></svg>