<svg xmlns="http://www.w3.org/2000/svg" viewBox="0 0 48 48"><title>38-Search</title><g id="_38-Search" data-name="38-Search"><path d="M24,48a.991.991,0,0,1-.371-.071l-20-8A1,1,0,0,1,3,39V3A3,3,0,0,1,6,0H42a3,3,0,0,1,3,3V39a1,1,0,0,1-.629.929l-20,8A.991.991,0,0,1,24,48ZM5,38.323l19,7.6,19-7.6V3a1,1,0,0,0-1-1H6A1,1,0,0,0,5,3Z"/><rect x="1" y="5" width="46" height="2"/><path d="M24,43a1.017,1.017,0,0,1-.352-.063l-16-6A1,1,0,0,1,7,36V9H9V35.307l15,5.625,15-5.625V9h2V36a1,1,0,0,1-.648.937l-16,6A1.017,1.017,0,0,1,24,43Z"/><rect x="23" y="36" width="2" height="6"/><path d="M36,22H34a10,10,0,0,0-20,0H12a12,12,0,0,1,24,0Z"/><path d="M31,22H29a5,5,0,0,0-10,0H17a7,7,0,0,1,14,0Z"/><path d="M24,26a3,3,0,1,1,3-3A3,3,0,0,1,24,26Zm0-4a1,1,0,1,0,1,1A1,1,0,0,0,24,22Z"/><rect x="23" y="32" width="2" height="2"/><rect x="23" y="28" width="2" height="2"/></g></svg>