<svg xmlns="http://www.w3.org/2000/svg" viewBox="0 0 48 48"><title>39-Alram</title><g id="_39-Alram" data-name="39-Alram"><path d="M43,48H5a5.006,5.006,0,0,1-5-5V5A5.006,5.006,0,0,1,5,0H43a5.006,5.006,0,0,1,5,5V43A5.006,5.006,0,0,1,43,48ZM5,2A3,3,0,0,0,2,5V43a3,3,0,0,0,3,3H43a3,3,0,0,0,3-3V5a3,3,0,0,0-3-3Z"/><rect x="4" y="8" width="40" height="2"/><rect x="5" y="4" width="2" height="2"/><rect x="9" y="4" width="2" height="2"/><rect x="41" y="4" width="2" height="2"/><path d="M37,35H35V20a5.006,5.006,0,0,0-5-5H18a5.006,5.006,0,0,0-5,5V35H11V20a7.009,7.009,0,0,1,7-7H30a7.009,7.009,0,0,1,7,7Z"/><path d="M39,42H37V39H11v3H9V39a2,2,0,0,1,2-2H37a2,2,0,0,1,2,2Z"/><rect x="7" y="41" width="34" height="2"/><path d="M25,34H23V26.873A4,4,0,1,1,28,23H26a2,2,0,1,0-2,2,1,1,0,0,1,1,1Z"/><rect x="21" y="33" width="6" height="2"/><rect x="29" y="33" width="2" height="2"/><rect x="17" y="33" width="2" height="2"/></g></svg>