<svg xmlns="http://www.w3.org/2000/svg" viewBox="0 0 48 48"><title>4-Login</title><g id="_4-Login" data-name="4-Login"><path d="M43,48H5a5.006,5.006,0,0,1-5-5V5A5.006,5.006,0,0,1,5,0H43a5.006,5.006,0,0,1,5,5V43A5.006,5.006,0,0,1,43,48ZM5,2A3,3,0,0,0,2,5V43a3,3,0,0,0,3,3H43a3,3,0,0,0,3-3V5a3,3,0,0,0-3-3Z"/><rect x="4" y="8" width="40" height="2"/><rect x="5" y="4" width="2" height="2"/><rect x="9" y="4" width="2" height="2"/><rect x="41" y="4" width="2" height="2"/><path d="M39,22H9a2,2,0,0,1-2-2V16a2,2,0,0,1,2-2H39a2,2,0,0,1,2,2v4A2,2,0,0,1,39,22ZM9,16v4H39V16Z"/><path d="M39,33H9a2,2,0,0,1-2-2V27a2,2,0,0,1,2-2H39a2,2,0,0,1,2,2v4A2,2,0,0,1,39,33ZM9,27v4H39V27Z"/><path d="M15,42H9a2,2,0,0,1-2-2V37a1,1,0,0,1,1-1h8a1,1,0,0,1,1,1v3A2,2,0,0,1,15,42ZM9,38v2h6V38Z"/><path d="M27,42H21a2,2,0,0,1-2-2V37a1,1,0,0,1,1-1h8a1,1,0,0,1,1,1v3A2,2,0,0,1,27,42Zm-6-4v2h6V38Z"/><rect x="39" y="36" width="2" height="2"/><rect x="35" y="36" width="2" height="2"/><rect x="32" y="40" width="9" height="2"/></g></svg>