<svg xmlns="http://www.w3.org/2000/svg" viewBox="0 0 48 48"><title>40-Security</title><g id="_40-Security" data-name="40-Security"><path d="M22,48H5a3,3,0,0,1-3-3V17a3,3,0,0,1,3-3H37a3,3,0,0,1,3,3v5H38V17a1,1,0,0,0-1-1H5a1,1,0,0,0-1,1V45a1,1,0,0,0,1,1H22Z"/><path d="M36,13H34V12H8v1H6V11a1,1,0,0,1,1-1H35a1,1,0,0,1,1,1Z"/><path d="M32,11H30V3a1,1,0,0,0-1-1H13a1,1,0,0,0-1,1v8H10V3a3,3,0,0,1,3-3H29a3,3,0,0,1,3,3Z"/><rect y="19" width="42" height="2"/><path d="M11,44H7a1,1,0,0,1-1-1V39H8v3h3Z"/><rect x="6" y="23" width="2" height="2"/><rect x="10" y="23" width="2" height="2"/><path d="M48,36H46a10,10,0,0,0-20,0H24a12,12,0,0,1,24,0Z"/><path d="M43,36H41a5,5,0,0,0-10,0H29a7,7,0,0,1,14,0Z"/><path d="M36,40a3,3,0,1,1,3-3A3,3,0,0,1,36,40Zm0-4a1,1,0,1,0,1,1A1,1,0,0,0,36,36Z"/><path d="M34,48H29V46h5a.918.918,0,0,0,1-1.012V42h2v3A2.916,2.916,0,0,1,34,48Z"/><rect x="25" y="46" width="2" height="2"/><path d="M22,41H19a1,1,0,0,1-1-1V33.979A4.986,4.986,0,0,1,21,25v2a3,3,0,0,0-3,3,2.968,2.968,0,0,0,1.5,2.581,1,1,0,0,1,.5.864V39h2Z"/></g></svg>