<svg xmlns="http://www.w3.org/2000/svg" viewBox="0 0 48 48"><title>43-File Protection</title><g id="_43-File_Protection" data-name="43-File Protection"><rect x="11" y="6" width="10" height="2"/><rect x="11" y="10" width="2" height="2"/><rect x="15" y="10" width="2" height="2"/><path d="M40,48H8a3,3,0,0,1-3-3H7a1,1,0,0,0,1,1H40a1,1,0,0,0,1-1h2A3,3,0,0,1,40,48Z"/><path d="M43,39H41V9.414L33.586,2H8A1,1,0,0,0,7,3V39H5V3A3,3,0,0,1,8,0H34a1,1,0,0,1,.707.293l8,8A1,1,0,0,1,43,9Z"/><path d="M38,10H36a3,3,0,0,1-3-3V1h2V7a1,1,0,0,0,1,1h2Z"/><path d="M24,39a.99.99,0,0,1-.419-.092l-9-4.154A1,1,0,0,1,14,33.846V16a1,1,0,0,1,1-1H33a1,1,0,0,1,1,1V33.846a1,1,0,0,1-.581.908l-9,4.154A.99.99,0,0,1,24,39Zm-8-5.794L24,36.9l8-3.692V17H16Z"/><rect x="12" y="19" width="24" height="2"/><rect x="23" y="25" width="2" height="13"/><rect x="19" y="24" width="10" height="2"/><rect x="3" y="41" width="13" height="2"/><rect x="36" y="41" width="9" height="2"/><rect x="32" y="41" width="2" height="2"/><rect x="28" y="41" width="2" height="2"/><rect x="18" y="41" width="2" height="2"/><rect x="22" y="41" width="4" height="2"/></g></svg>