<svg xmlns="http://www.w3.org/2000/svg" viewBox="0 0 48 48"><title>44-Chat log Protection</title><g id="_44-Chat_log_Protection" data-name="44-Chat log Protection"><path d="M27,46a.987.987,0,0,1-.383-.076A1,1,0,0,1,26,45V42H13a3,3,0,0,1-3-3V36h2v3a1,1,0,0,0,1,1H27a1,1,0,0,1,1,1v1.586l2.293-2.293A1,1,0,0,1,31,40H45a1,1,0,0,0,1-1V15a1,1,0,0,0-1-1V12a3,3,0,0,1,3,3V39a3,3,0,0,1-3,3H31.414l-3.707,3.707A1,1,0,0,1,27,46Z"/><path d="M18,38a.987.987,0,0,1-.383-.076A1,1,0,0,1,17,37V34H3a3,3,0,0,1-3-3V7A3,3,0,0,1,3,4H19V6H3A1,1,0,0,0,2,7V31a1,1,0,0,0,1,1H18a1,1,0,0,1,1,1v1.586l2.293-2.293A1,1,0,0,1,22,32H35a1,1,0,0,0,1-1V27h2v4a3,3,0,0,1-3,3H22.414l-3.707,3.707A1,1,0,0,1,18,38Z"/><rect x="5" y="12" width="11" height="2"/><rect x="5" y="18" width="15" height="2"/><rect x="5" y="24" width="20" height="2"/><path d="M33,26a.99.99,0,0,1-.419-.092l-9-4.154A1,1,0,0,1,23,20.846V3a1,1,0,0,1,1-1H42a1,1,0,0,1,1,1V20.846a1,1,0,0,1-.581.908l-9,4.154A.99.99,0,0,1,33,26Zm-8-5.794L33,23.9l8-3.692V4H25Z"/><rect x="21" y="6" width="24" height="2"/><rect x="32" y="12" width="2" height="13"/><rect x="28" y="11" width="10" height="2"/><rect x="18" y="12" width="2" height="2"/></g></svg>