<svg xmlns="http://www.w3.org/2000/svg" viewBox="0 0 48 48"><title>46-Network Protection</title><g id="_46-Network_Protection" data-name="46-Network Protection"><path d="M41.014,11.007S41,9.019,41,8.018L23,8V6H41.014A1.945,1.945,0,0,1,43,7.986c0,.986.014,3.007.014,3.007Z"/><path d="M48,14H46V13a1,1,0,0,0-1-1H23a1,1,0,0,1-1-1V3a1,1,0,0,0-1-1H3A1,1,0,0,0,2,3V14H0V3A3,3,0,0,1,3,0H21a3,3,0,0,1,3,3v7H45a3,3,0,0,1,3,3Z"/><path d="M45,48H3a3,3,0,0,1-3-3V44H2v1a1,1,0,0,0,1,1H45a1,1,0,0,0,1-1V44h2v1A3,3,0,0,1,45,48Z"/><rect x="9" y="10" width="14" height="2"/><path d="M34,26H32V19H16v7H14V18a1,1,0,0,1,1-1H33a1,1,0,0,1,1,1Z"/><path d="M24,41a.987.987,0,0,1-.419-.092l-9-4.154A1,1,0,0,1,14,35.846V32h2v3.206L24,38.9l8-3.692V32h2v3.846a1,1,0,0,1-.581.908l-9,4.154A.987.987,0,0,1,24,41Z"/><rect x="15" y="21" width="18" height="2"/><rect x="23" y="27" width="2" height="13"/><rect x="19" y="26" width="10" height="2"/><path d="M43,40H39a1.959,1.959,0,0,1-2-2V30H32V28h5a1.959,1.959,0,0,1,2,2v8h4Z"/><path d="M39,26H37V20a1.959,1.959,0,0,1,2-2h4v2H39Z"/><path d="M45,42a3,3,0,1,1,3-3A3,3,0,0,1,45,42Zm0-4a1,1,0,1,0,1,1A1,1,0,0,0,45,38Z"/><path d="M45,32a3,3,0,1,1,3-3A3,3,0,0,1,45,32Zm0-4a1,1,0,1,0,1,1A1,1,0,0,0,45,28Z"/><path d="M45,22a3,3,0,1,1,3-3A3,3,0,0,1,45,22Zm0-4a1,1,0,1,0,1,1A1,1,0,0,0,45,18Z"/><rect x="40" y="28" width="3" height="2"/><path d="M16,30H11a1.959,1.959,0,0,1-2-2V20H5V18H9a1.959,1.959,0,0,1,2,2v8h5Z"/><path d="M9,40H5V38H9V32h2v6A1.959,1.959,0,0,1,9,40Z"/><path d="M3,22a3,3,0,1,1,3-3A3,3,0,0,1,3,22Zm0-4a1,1,0,1,0,1,1A1,1,0,0,0,3,18Z"/><path d="M3,32a3,3,0,1,1,3-3A3,3,0,0,1,3,32Zm0-4a1,1,0,1,0,1,1A1,1,0,0,0,3,28Z"/><path d="M3,42a3,3,0,1,1,3-3A3,3,0,0,1,3,42Zm0-4a1,1,0,1,0,1,1A1,1,0,0,0,3,38Z"/><rect x="5" y="28" width="3" height="2"/></g></svg>