<svg xmlns="http://www.w3.org/2000/svg" viewBox="0 0 48 48"><title>47-Computer Laptop Security</title><g id="_47-Computer_Laptop_Security" data-name="47-Computer Laptop Security"><path d="M32,32H20a3,3,0,0,1-3-3V18a1,1,0,0,1,1-1H34a1,1,0,0,1,1,1V29A3,3,0,0,1,32,32ZM19,19V29a1,1,0,0,0,1,1H32a1,1,0,0,0,1-1V19Z"/><path d="M32,18H30V12.007A.187.187,0,0,1,29.937,12l-7.928,0c.009.008,0,.044-.009.08V18H20V12a2.046,2.046,0,0,1,2-2h8a2.017,2.017,0,0,1,2,2Z"/><rect x="15" y="21" width="22" height="2"/><rect x="25" y="25" width="2" height="2"/><path d="M22,44H17a1,1,0,0,1-1-1V35h2v7h4Z"/><path d="M22,48H15a2,2,0,0,1-2-2V43a1,1,0,0,1,1-1h3v2H15v2h7Z"/><path d="M22,36H3a3,3,0,0,1-3-3V3A3,3,0,0,1,3,0H45a3,3,0,0,1,3,3v9H46V3a1,1,0,0,0-1-1H3A1,1,0,0,0,2,3V33a1,1,0,0,0,1,1H22Z"/><rect x="11" y="46" width="11" height="2"/><path d="M15,31H6a1,1,0,0,1-1-1V6A1,1,0,0,1,6,5H42a1,1,0,0,1,1,1v6H41V7H7V29h8Z"/><path d="M11,14H9V10a1,1,0,0,1,1-1h4v2H11Z"/><path d="M45,48H27a3,3,0,0,1-3-3V35h2V45a1,1,0,0,0,1,1H45a1,1,0,0,0,1-1V17a1,1,0,0,0-1-1H36V14h9a3,3,0,0,1,3,3V45A3,3,0,0,1,45,48Z"/><rect x="39" y="19" width="5" height="2"/><rect x="28" y="41" width="16" height="2"/><path d="M43,39H39V37h3V34h2v4A1,1,0,0,1,43,39Z"/></g></svg>