<svg xmlns="http://www.w3.org/2000/svg" viewBox="0 0 48 48"><title>48-Laptop Security</title><g id="_48-Laptop_Security" data-name="48-Laptop Security"><path d="M30,25H18a3,3,0,0,1-3-3V11a1,1,0,0,1,1-1H32a1,1,0,0,1,1,1V22A3,3,0,0,1,30,25ZM17,12V22a1,1,0,0,0,1,1H30a1,1,0,0,0,1-1V12Z"/><path d="M30,11H28V5.007c-.016.008-.062-.009-.063-.009L20.009,5c.009.008,0,.044-.009.08V11H18V5a2.046,2.046,0,0,1,2-2h8a2.017,2.017,0,0,1,2,2Z"/><rect x="13" y="14" width="22" height="2"/><rect x="23" y="18" width="2" height="2"/><path d="M46,45H2a2,2,0,0,1-2-2V38a1,1,0,0,1,1-1H18a1,1,0,0,1,.895.553L19.618,39h8.764l.723-1.447A1,1,0,0,1,30,37H47a1,1,0,0,1,1,1v5A2,2,0,0,1,46,45ZM2,39v4H46V39H30.618L29.9,40.447A1,1,0,0,1,29,41H19a1,1,0,0,1-.895-.553L17.382,39Z"/><path d="M4,35H2V10A3,3,0,0,1,5,7h9V9H5a1,1,0,0,0-1,1Z"/><path d="M46,35H44V10a1,1,0,0,0-1-1V7a3,3,0,0,1,3,3Z"/><path d="M42,35H40V13H36V11h5a1,1,0,0,1,1,1Z"/><path d="M8,35H6V12a1,1,0,0,1,1-1h5v2H8Z"/><rect x="4" y="40" width="2" height="2"/><rect x="42" y="40" width="2" height="2"/><rect x="34" y="7" width="9" height="2"/><rect x="23" y="32" width="2" height="2"/><rect x="28" y="32" width="2" height="2"/><rect x="18" y="32" width="2" height="2"/><rect x="12" y="28" width="24" height="2"/><rect x="12" y="32" width="4" height="2"/><rect x="32" y="32" width="4" height="2"/></g></svg>