<svg xmlns="http://www.w3.org/2000/svg" viewBox="0 0 48 48"><title>49-Security</title><g id="_49-Security" data-name="49-Security"><path d="M43,48H5a5.006,5.006,0,0,1-5-5V5A5.006,5.006,0,0,1,5,0H43a5.006,5.006,0,0,1,5,5V43A5.006,5.006,0,0,1,43,48ZM5,2A3,3,0,0,0,2,5V43a3,3,0,0,0,3,3H43a3,3,0,0,0,3-3V5a3,3,0,0,0-3-3Z"/><rect x="4" y="8" width="40" height="2"/><rect x="5" y="4" width="2" height="2"/><rect x="9" y="4" width="2" height="2"/><rect x="41" y="4" width="2" height="2"/><path d="M26,43H22a2,2,0,0,1-2-2V38.246c-.139-.055-.277-.112-.416-.174l-1.948,1.949a2,2,0,0,1-2.828,0l-2.829-2.829a2,2,0,0,1,0-2.828l1.949-1.948c-.062-.139-.119-.277-.174-.416H11a2,2,0,0,1-2-2V26a2,2,0,0,1,2-2h2.754c.055-.139.112-.277.174-.416l-1.949-1.948a2,2,0,0,1,0-2.828l2.829-2.829a2,2,0,0,1,2.828,0l1.948,1.949c.139-.062.277-.119.416-.174V15a2,2,0,0,1,2-2h4a2,2,0,0,1,2,2v2.754c.139.055.277.112.416.174l1.948-1.949a2,2,0,0,1,2.828,0l2.829,2.829a2,2,0,0,1,0,2.828l-1.949,1.948c.062.139.119.277.174.416H37a2,2,0,0,1,2,2v4a2,2,0,0,1-2,2H34.246c-.055.139-.112.277-.174.416l1.949,1.948a2,2,0,0,1,0,2.828l-2.829,2.829a2,2,0,0,1-2.828,0l-1.948-1.949c-.139.062-.277.119-.416.174V41A2,2,0,0,1,26,43Zm-6.621-7.137a1,1,0,0,1,.463.114,9.049,9.049,0,0,0,1.459.61,1,1,0,0,1,.7.954V41h4V37.541a1,1,0,0,1,.7-.954,9.049,9.049,0,0,0,1.459-.61,1,1,0,0,1,1.17.179l2.45,2.45,2.828-2.828-2.45-2.45a1,1,0,0,1-.179-1.17,9.049,9.049,0,0,0,.61-1.459,1,1,0,0,1,.954-.7H37V26H33.541a1,1,0,0,1-.954-.7,9.049,9.049,0,0,0-.61-1.459,1,1,0,0,1,.179-1.17l2.45-2.45-2.828-2.828-2.45,2.45a1,1,0,0,1-1.17.179,9.049,9.049,0,0,0-1.459-.61,1,1,0,0,1-.7-.954V15H22v3.459a1,1,0,0,1-.7.954,9.049,9.049,0,0,0-1.459.61,1,1,0,0,1-1.17-.179l-2.45-2.45-2.828,2.828,2.45,2.45a1,1,0,0,1,.179,1.17,9.049,9.049,0,0,0-.61,1.459,1,1,0,0,1-.954.7H11v4h3.459a1,1,0,0,1,.954.7,9.049,9.049,0,0,0,.61,1.459,1,1,0,0,1-.179,1.17l-2.45,2.45,2.828,2.828,2.45-2.45A1,1,0,0,1,19.379,35.863Z"/><path d="M6,17H4V13a1,1,0,0,1,1-1H9v2H6Z"/><path d="M43,44H39V42h3V39h2v4A1,1,0,0,1,43,44Z"/><path d="M26,35H22a1,1,0,0,1-1-1V29.979a5,5,0,1,1,6,0V34A1,1,0,0,1,26,35Zm-3-2h2V29.445a1,1,0,0,1,.5-.864A2.968,2.968,0,0,0,27,26a3,3,0,0,0-6,0,2.968,2.968,0,0,0,1.5,2.581,1,1,0,0,1,.5.864Z"/></g></svg>