<svg xmlns="http://www.w3.org/2000/svg" viewBox="0 0 48 48"><title>5-Web Security</title><g id="_5-Web_Security" data-name="5-Web Security"><path d="M43,48H5a5.006,5.006,0,0,1-5-5V5A5.006,5.006,0,0,1,5,0H43a5.006,5.006,0,0,1,5,5V43A5.006,5.006,0,0,1,43,48ZM5,2A3,3,0,0,0,2,5V43a3,3,0,0,0,3,3H43a3,3,0,0,0,3-3V5a3,3,0,0,0-3-3Z"/><rect x="4" y="8" width="40" height="2"/><rect x="5" y="4" width="2" height="2"/><rect x="9" y="4" width="2" height="2"/><rect x="41" y="4" width="2" height="2"/><path d="M24,40a1,1,0,0,1-.419-.092l-9-4.154A1,1,0,0,1,14,34.846V17a1,1,0,0,1,1-1H33a1,1,0,0,1,1,1V34.846a1,1,0,0,1-.581.908l-9,4.154A1,1,0,0,1,24,40Zm-8-5.793L24,37.9l8-3.691V18H16Z"/><rect x="12" y="20" width="24" height="2"/><rect x="23" y="26" width="2" height="13"/><rect x="19" y="25" width="10" height="2"/><path d="M6,17H4V13a1,1,0,0,1,1-1H9v2H6Z"/><path d="M43,44H39V42h3V39h2v4A1,1,0,0,1,43,44Z"/></g></svg>