<svg xmlns="http://www.w3.org/2000/svg" viewBox="0 0 48 48"><title>50-Computer Login</title><g id="_50-Computer_Login" data-name="50-Computer Login"><rect x="4" y="27" width="40" height="2"/><path d="M31,44H17a1,1,0,0,1-.992-1.124l1-8A1,1,0,0,1,18,34H30a1,1,0,0,1,.992.876l1,8A1,1,0,0,1,31,44ZM18.133,42H29.867l-.75-6H18.883Z"/><path d="M33,48H15a2,2,0,0,1-2-2V43a1,1,0,0,1,1-1H34a1,1,0,0,1,1,1v3A2,2,0,0,1,33,48ZM15,44v2H33V44Z"/><path d="M45,36H3a3,3,0,0,1-3-3V3A3,3,0,0,1,3,0H45a3,3,0,0,1,3,3V33A3,3,0,0,1,45,36ZM3,2A1,1,0,0,0,2,3V33a1,1,0,0,0,1,1H45a1,1,0,0,0,1-1V3a1,1,0,0,0-1-1Z"/><rect x="11" y="46" width="26" height="2"/><path d="M43,25H41V7H39V5h3a1,1,0,0,1,1,1Z"/><path d="M7,25H5V6A1,1,0,0,1,6,5H9V7H7Z"/><path d="M35,16H13a2,2,0,0,1-2-2V8a2,2,0,0,1,2-2H35a2,2,0,0,1,2,2v6A2,2,0,0,1,35,16ZM13,8h0l0,6H35V8Z"/><rect x="17" y="10" width="2" height="2"/><rect x="21" y="10" width="2" height="2"/><rect x="25" y="10" width="2" height="2"/><rect x="29" y="10" width="2" height="2"/><rect x="11" y="18" width="2" height="2"/><rect x="15" y="18" width="2" height="2"/><rect x="11" y="22" width="10" height="2"/><path d="M35,24H29a2,2,0,0,1-2-2V20a2,2,0,0,1,2-2h6a2,2,0,0,1,2,2v2A2,2,0,0,1,35,24Zm-6-4v2l6,0V20Z"/></g></svg>