<svg xmlns="http://www.w3.org/2000/svg" viewBox="0 0 48 48"><title>7-Cloud Security</title><g id="_7-Cloud_Security" data-name="7-Cloud Security"><path d="M24,39H9A9,9,0,0,1,7.033,21.223,9.013,9.013,0,0,1,16,13h.056a9,9,0,0,1,17.911.223A9.029,9.029,0,0,1,39.9,17.694l-1.754.959a7.019,7.019,0,0,0-5.276-3.592A1,1,0,0,1,32,14.026,7,7,0,1,0,18,14a1,1,0,0,1-1,1H16a7.008,7.008,0,0,0-7,7,1.068,1.068,0,0,1-.872,1.061A7,7,0,0,0,9,37H24Z"/><path d="M22,14H20a5.006,5.006,0,0,1,5-5v2A3,3,0,0,0,22,14Z"/><path d="M43,43H31a3,3,0,0,1-3-3V29a1,1,0,0,1,1-1H45a1,1,0,0,1,1,1V40A3,3,0,0,1,43,43ZM30,30V40a1,1,0,0,0,1,1H43a1,1,0,0,0,1-1V30Z"/><path d="M43,29H41V23.007A.187.187,0,0,1,40.937,23l-7.928,0c.009.007,0,.044-.009.08V29H31V23a2.046,2.046,0,0,1,2-2h8a2.017,2.017,0,0,1,2,2Z"/><rect x="26" y="32" width="22" height="2"/><rect x="36" y="36" width="2" height="2"/></g></svg>