<svg xmlns="http://www.w3.org/2000/svg" viewBox="0 0 48 48"><title>9-Web Security</title><g id="_9-Web_Security" data-name="9-Web Security"><rect x="4" y="26" width="40" height="2"/><path d="M31,44H17a1,1,0,0,1-.992-1.124l1-8A1,1,0,0,1,18,34H30a1,1,0,0,1,.992.876l1,8A1,1,0,0,1,31,44ZM18.133,42H29.867l-.75-6H18.883Z"/><path d="M33,48H15a2,2,0,0,1-2-2V43a1,1,0,0,1,1-1H34a1,1,0,0,1,1,1v3A2,2,0,0,1,33,48ZM15,44v2H33V44Z"/><path d="M45,36H3a3,3,0,0,1-3-3V3A3,3,0,0,1,3,0V2A1,1,0,0,0,2,3V33a1,1,0,0,0,1,1H45a1,1,0,0,0,1-1V3a1,1,0,0,0-1-1V0a3,3,0,0,1,3,3V33A3,3,0,0,1,45,36Z"/><rect x="11" y="46" width="26" height="2"/><path d="M7,24H5V2A2,2,0,0,1,7,0H17V2H7Z"/><path d="M43,24H41V2H31V0H41a2,2,0,0,1,2,2Z"/><rect x="6" y="4" width="10" height="2"/><path d="M30,24H18a3,3,0,0,1-3-3V10a1,1,0,0,1,1-1H32a1,1,0,0,1,1,1V21A3,3,0,0,1,30,24ZM17,11V21a1,1,0,0,0,1,1H30a1,1,0,0,0,1-1V11Z"/><path d="M30,10H28V4.007A.168.168,0,0,1,27.937,4L20.009,4c.009.007,0,.044-.009.08V10H18V4a2.046,2.046,0,0,1,2-2h8a2.017,2.017,0,0,1,2,2Z"/><rect x="13" y="13" width="22" height="2"/><rect x="23" y="17" width="2" height="2"/><rect x="32" y="4" width="10" height="2"/><rect x="9" y="8" width="2" height="2"/><rect x="9" y="22" width="2" height="2"/><rect x="37" y="22" width="2" height="2"/><rect x="37" y="8" width="2" height="2"/></g></svg>