<svg xmlns="http://www.w3.org/2000/svg" viewBox="0 0 48 48"><title>11-Folder Security</title><g id="_11-Folder_Security" data-name="11-Folder Security"><path d="M41.013,11.006S41,9.017,41,8.018L23,8V6H41.013A1.945,1.945,0,0,1,43,7.987c0,.984.013,3.007.013,3.007Z"/><path d="M45,48H3a3,3,0,0,1-3-3V3A3,3,0,0,1,3,0H21a3,3,0,0,1,3,3v7H45a3,3,0,0,1,3,3V45A3,3,0,0,1,45,48ZM3,2A1,1,0,0,0,2,3V45a1,1,0,0,0,1,1H45a1,1,0,0,0,1-1V13a1,1,0,0,0-1-1H23a1,1,0,0,1-1-1V3a1,1,0,0,0-1-1Z"/><rect x="9" y="10" width="14" height="2"/><path d="M39,23H38V21h1V17H9v4H22v2H9a2,2,0,0,1-2-2V17a2,2,0,0,1,2-2H39a2,2,0,0,1,2,2v4A2,2,0,0,1,39,23Z"/><path d="M16,34H9a2,2,0,0,1-2-2V28a2,2,0,0,1,2-2H19v2H9v4h7Z"/><path d="M36,43H24a3,3,0,0,1-3-3V29a1,1,0,0,1,1-1H38a1,1,0,0,1,1,1V40A3,3,0,0,1,36,43ZM23,30V40a1,1,0,0,0,1,1H36a1,1,0,0,0,1-1V30Z"/><path d="M36,29H34V23.007c-.011.006-.062-.009-.062-.009l-7.929,0c.009.007,0,.044-.009.08V29H24V23a2.045,2.045,0,0,1,2-2h8a2.017,2.017,0,0,1,2,2Z"/><rect x="19" y="32" width="22" height="2"/><rect x="29" y="36" width="2" height="2"/><rect x="7" y="36" width="2" height="2"/><rect x="11" y="36" width="2" height="2"/><rect x="7" y="40" width="10" height="2"/></g></svg>