<svg xmlns="http://www.w3.org/2000/svg" viewBox="0 0 48 48"><title>12-Payment Security</title><g id="_12-Payment_Security" data-name="12-Payment Security"><path d="M45,39H36V37h9a1,1,0,0,0,1-1V8a1,1,0,0,0-1-1H3A1,1,0,0,0,2,8V36a1,1,0,0,0,1,1h9v2H3a3,3,0,0,1-3-3V8A3,3,0,0,1,3,5H45a3,3,0,0,1,3,3V36A3,3,0,0,1,45,39Z"/><path d="M12,16H6a1,1,0,0,1-1-1V11a1,1,0,0,1,1-1h6a1,1,0,0,1,1,1v4A1,1,0,0,1,12,16ZM7,14h4V12H7Z"/><path d="M33,17a4,4,0,1,1,4-4A4,4,0,0,1,33,17Zm0-6a2,2,0,1,0,2,2A2,2,0,0,0,33,11Z"/><path d="M39,17a4,4,0,1,1,4-4A4,4,0,0,1,39,17Zm0-6a2,2,0,1,0,2,2A2,2,0,0,0,39,11Z"/><path d="M13,27H6a1,1,0,0,1-1-1V22a1,1,0,0,1,1-1H16v2H7v2h6Z"/><path d="M42,27H35V25h6V23H32V21H42a1,1,0,0,1,1,1v4A1,1,0,0,1,42,27Z"/><rect x="5" y="30" width="2" height="2"/><rect x="9" y="30" width="2" height="2"/><rect x="37" y="30" width="6" height="2"/><path d="M30,43H18a3,3,0,0,1-3-3V29a1,1,0,0,1,1-1H32a1,1,0,0,1,1,1V40A3,3,0,0,1,30,43ZM17,30V40a1,1,0,0,0,1,1H30a1,1,0,0,0,1-1V30Z"/><path d="M30,29H28V23.007c-.009.006-.062-.009-.062-.009l-7.929,0c.009.007,0,.044-.009.08V29H18V23a2.045,2.045,0,0,1,2-2h8a2.017,2.017,0,0,1,2,2Z"/><rect x="13" y="32" width="22" height="2"/><rect x="23" y="36" width="2" height="2"/></g></svg>