<svg xmlns="http://www.w3.org/2000/svg" viewBox="0 0 48 48"><title>13-Computer Security</title><g id="_13-Computer_Security" data-name="13-Computer Security"><rect x="4" y="26" width="6" height="2"/><path d="M31,44H17a1,1,0,0,1-.992-1.124l1-8A1,1,0,0,1,18,34H30a1,1,0,0,1,.992.876l1,8A1,1,0,0,1,31,44ZM18.133,42H29.867l-.75-6H18.883Z"/><path d="M33,48H15a2,2,0,0,1-2-2V43a1,1,0,0,1,1-1H34a1,1,0,0,1,1,1v3A2,2,0,0,1,33,48ZM15,44v2H33V44Z"/><path d="M45,36H3a3,3,0,0,1-3-3V3A3,3,0,0,1,3,0H24V2H3A1,1,0,0,0,2,3V33a1,1,0,0,0,1,1H45a1,1,0,0,0,1-1V3a1,1,0,0,0-1-1H42V0h3a3,3,0,0,1,3,3V33A3,3,0,0,1,45,36Z"/><rect x="11" y="46" width="26" height="2"/><path d="M7,24H5V6A1,1,0,0,1,6,5h4V7H7Z"/><path d="M22,31a1,1,0,0,1-.419-.092l-9-4.154A1,1,0,0,1,12,25.846V8a1,1,0,0,1,1-1h7V9H14V25.207L22,28.9l8-3.691V24h2v1.846a1,1,0,0,1-.581.908l-9,4.154A1,1,0,0,1,22,31Z"/><rect x="10" y="11" width="10" height="2"/><rect x="21" y="19" width="2" height="11"/><path d="M33,22A11,11,0,1,1,44,11,11.013,11.013,0,0,1,33,22ZM33,2a9,9,0,1,0,9,9A9.011,9.011,0,0,0,33,2Z"/><rect x="34" y="26" width="10" height="2"/><path d="M31,16a1,1,0,0,1-.707-.293l-3-3,1.414-1.414L31,13.586l7.293-7.293,1.414,1.414-8,8A1,1,0,0,1,31,16Z"/></g></svg>