<svg xmlns="http://www.w3.org/2000/svg" viewBox="0 0 48 48"><title>14-Cloud Network Security</title><g id="_14-Cloud_Network_Security" data-name="14-Cloud Network Security"><path d="M39,36H37V34h2a7,7,0,0,0,.873-13.939A1,1,0,0,1,39,19.068c0-.025,0-.084,0-.109a6.994,6.994,0,0,0-6.128-6.9A1,1,0,0,1,32,11.068c0-.025,0-.084,0-.109A7,7,0,0,0,18,11a1,1,0,0,1-1,1H16a7.008,7.008,0,0,0-7,7,1.068,1.068,0,0,1-.873,1.061A7,7,0,0,0,9,34h2v2H9A9,9,0,0,1,7.042,18.221,9.011,9.011,0,0,1,16,10h.055a9,9,0,0,1,17.912.223,9.01,9.01,0,0,1,7,8A9,9,0,0,1,39,36Z"/><path d="M22,11H20a5.006,5.006,0,0,1,5-5V8A3,3,0,0,0,22,11Z"/><path d="M15,41H13V37a1.959,1.959,0,0,1,2-2h8V32h2v3a1.959,1.959,0,0,1-2,2H15Z"/><path d="M35,41H33V37H27V35h6a1.959,1.959,0,0,1,2,2Z"/><path d="M14,46a3,3,0,1,1,3-3A3,3,0,0,1,14,46Zm0-4a1,1,0,1,0,1,1A1,1,0,0,0,14,42Z"/><path d="M24,46a3,3,0,1,1,3-3A3,3,0,0,1,24,46Zm0-4a1,1,0,1,0,1,1A1,1,0,0,0,24,42Z"/><path d="M34,46a3,3,0,1,1,3-3A3,3,0,0,1,34,46Zm0-4a1,1,0,1,0,1,1A1,1,0,0,0,34,42Z"/><rect x="23" y="38" width="2" height="3"/><path d="M26,30H22a1,1,0,0,1-1-1V22.979a5,5,0,1,1,6,0V29A1,1,0,0,1,26,30Zm-3-2h2V22.445a1,1,0,0,1,.5-.864A2.968,2.968,0,0,0,27,19a3,3,0,0,0-6,0,2.968,2.968,0,0,0,1.5,2.581,1,1,0,0,1,.5.864Z"/><rect x="23" y="18" width="2" height="2"/></g></svg>