<svg xmlns="http://www.w3.org/2000/svg" viewBox="0 0 48 48"><title>15-Making Money</title><g id="_15-Making_Money" data-name="15-Making Money"><path d="M46,45H2a2,2,0,0,1-2-2V38a1,1,0,0,1,1-1H18a1,1,0,0,1,.895.553L19.618,39h8.764l.723-1.447A1,1,0,0,1,30,37H47a1,1,0,0,1,1,1v5A2,2,0,0,1,46,45ZM2,39v4H46V39H30.618L29.9,40.447A1,1,0,0,1,29,41H19a1,1,0,0,1-.895-.553L17.382,39Z"/><path d="M4,35H2V10A3,3,0,0,1,5,7h5V9H5a1,1,0,0,0-1,1Z"/><path d="M46,35H44V10a1,1,0,0,0-1-1V7a3,3,0,0,1,3,3Z"/><path d="M42,35H40V13H37V11h4a1,1,0,0,1,1,1Z"/><path d="M8,35H6V12a1,1,0,0,1,1-1h4v2H8Z"/><rect x="4" y="40" width="2" height="2"/><rect x="42" y="40" width="2" height="2"/><path d="M24,27a1,1,0,0,1-.419-.092l-9-4.154A1,1,0,0,1,14,21.846V4a1,1,0,0,1,1-1H33a1,1,0,0,1,1,1V21.846a1,1,0,0,1-.581.908l-9,4.154A1,1,0,0,1,24,27Zm-8-5.793L24,24.9l8-3.691V5H16Z"/><rect x="12" y="7" width="24" height="2"/><rect x="23" y="13" width="2" height="13"/><rect x="19" y="12" width="10" height="2"/><rect x="38" y="7" width="5" height="2"/><rect x="23" y="31" width="2" height="2"/><rect x="28" y="31" width="2" height="2"/><rect x="18" y="31" width="2" height="2"/></g></svg>