<svg xmlns="http://www.w3.org/2000/svg" viewBox="0 0 48 48"><title>17-Email Protection</title><g id="_17-Email_Protection" data-name="17-Email Protection"><rect x="3.308" y="29.5" width="18.385" height="2" transform="translate(-17.906 17.772) rotate(-45)"/><rect x="38.5" y="30.964" width="2" height="7.071" transform="translate(-12.826 38.036) rotate(-45)"/><path d="M45,43H3a3,3,0,0,1-3-3V12A3,3,0,0,1,3,9H21v2H3a1,1,0,0,0-1,1V40a1,1,0,0,0,1,1H45a1,1,0,0,0,1-1V27h2V40A3,3,0,0,1,45,43Z"/><path d="M24,29a.994.994,0,0,1-.611-.208l-22-17,1.222-1.584L24,26.736,25.466,25.6l1.222,1.582-2.077,1.605A1,1,0,0,1,24,29Z"/><path d="M36,29a1,1,0,0,1-.419-.092l-9-4.154A1,1,0,0,1,26,23.846V6a1,1,0,0,1,1-1H45a1,1,0,0,1,1,1V23.846a1,1,0,0,1-.581.908l-9,4.154A1,1,0,0,1,36,29Zm-8-5.793L36,26.9l8-3.691V7H28Z"/><rect x="24" y="9" width="24" height="2"/><rect x="35" y="15" width="2" height="13"/><rect x="31" y="14" width="10" height="2"/></g></svg>