<svg xmlns="http://www.w3.org/2000/svg" viewBox="0 0 48 48"><title>20-Chat log Security</title><g id="_20-Chat_log_Security" data-name="20-Chat log Security"><path d="M41,22H36V20h5a1,1,0,0,0,1-1V16a1,1,0,0,1,.293-.707l3.324-3.324L42.293,8.645A1,1,0,0,1,42,7.938V5a1,1,0,0,0-1-1H3A1,1,0,0,0,2,5V19a1,1,0,0,0,1,1h9v2H3a3,3,0,0,1-3-3V5A3,3,0,0,1,3,2H41a3,3,0,0,1,3,3V7.523l3.738,3.739a1,1,0,0,1,0,1.414L44,16.414V19A3,3,0,0,1,41,22Z"/><path d="M45,46H7a3,3,0,0,1-3-3V40.477L.262,36.738a1,1,0,0,1,0-1.414L4,31.586V29a3,3,0,0,1,3-3h5v2H7a1,1,0,0,0-1,1v3a1,1,0,0,1-.293.707L2.383,36.031l3.324,3.324A1,1,0,0,1,6,40.062V43a1,1,0,0,0,1,1H45a1,1,0,0,0,1-1V29a1,1,0,0,0-1-1H36V26h9a3,3,0,0,1,3,3V43A3,3,0,0,1,45,46Z"/><path d="M30,34H18a3,3,0,0,1-3-3V20a1,1,0,0,1,1-1H32a1,1,0,0,1,1,1V31A3,3,0,0,1,30,34ZM17,21V31a1,1,0,0,0,1,1H30a1,1,0,0,0,1-1V21Z"/><path d="M30,20H28V14.007A.183.183,0,0,1,27.937,14l-7.928,0c.009.007,0,.044-.009.08V20H18V14a2.046,2.046,0,0,1,2-2h8a2.017,2.017,0,0,1,2,2Z"/><rect x="13" y="23" width="22" height="2"/><rect x="23" y="27" width="2" height="2"/><path d="M38,12H31V10h7V8H6v2H17v2H6a2,2,0,0,1-2-2V8A2,2,0,0,1,6,6H38a2,2,0,0,1,2,2v2A2,2,0,0,1,38,12Z"/><rect x="4" y="15" width="2" height="2"/><rect x="8" y="15" width="8" height="2"/><rect x="34" y="15" width="6" height="2"/><path d="M42,42H10a2,2,0,0,1-2-2V38a2,2,0,0,1,2-2H42a2,2,0,0,1,2,2v2A2,2,0,0,1,42,42Zm0-4H10v2H42Z"/><rect x="42" y="31" width="2" height="2"/><rect x="35" y="31" width="5" height="2"/><rect x="8" y="31" width="5" height="2"/></g></svg>