<svg xmlns="http://www.w3.org/2000/svg" viewBox="0 0 48 48"><title>21-Router Security</title><g id="_21-Router_Security" data-name="21-Router Security"><path d="M25,42H4a1,1,0,0,1-1-1V38a3,3,0,0,1-3-3V25a3,3,0,0,1,3-3H45a3,3,0,0,1,3,3v6H46V25a1,1,0,0,0-1-1H3a1,1,0,0,0-1,1V35a1,1,0,0,0,1,1H4a1,1,0,0,1,1,1v3H25Z"/><rect x="4" y="36" width="20" height="2"/><path d="M9,47H5a1,1,0,0,1-1-1V43H6v2H8V43h2v3A1,1,0,0,1,9,47Z"/><path d="M13,24H9a1,1,0,0,1-1-1V5A1,1,0,0,1,9,4h4a1,1,0,0,1,1,1V23A1,1,0,0,1,13,24Zm-3-2h2V6H10Z"/><rect x="6" y="8" width="10" height="2"/><path d="M6,34H4V27a1,1,0,0,1,1-1H29v2H6Z"/><rect x="23" y="30" width="2" height="4"/><rect x="18" y="30" width="2" height="4"/><rect x="13" y="30" width="2" height="4"/><rect x="8" y="30" width="2" height="4"/><path d="M43,48H31a3,3,0,0,1-3-3V34a1,1,0,0,1,1-1H45a1,1,0,0,1,1,1V45A3,3,0,0,1,43,48ZM30,35V45a1,1,0,0,0,1,1H43a1,1,0,0,0,1-1V35Z"/><path d="M43,34H41V28.007c-.012.006-.062-.009-.062-.009l-7.929,0c.009.008,0,.044-.009.08V34H31V28a2.045,2.045,0,0,1,2-2h8a2.017,2.017,0,0,1,2,2Z"/><rect x="26" y="37" width="22" height="2"/><rect x="36" y="41" width="2" height="2"/><path d="M30,20V18A8,8,0,0,0,30,2V0a10,10,0,0,1,0,20Z"/><path d="M31,15V13a3,3,0,0,0,0-6V5a5,5,0,0,1,0,10Z"/><path d="M27,13a3.563,3.563,0,0,1-2.707-1.293C23.8,11.217,23.562,11,23,11V9a3.563,3.563,0,0,1,2.707,1.293c.49.49.731.707,1.293.707s.8-.217,1.293-.707A3.563,3.563,0,0,1,31,9v2c-.562,0-.8.217-1.293.707A3.563,3.563,0,0,1,27,13Z"/><rect x="19" y="9" width="2" height="2"/></g></svg>