<svg xmlns="http://www.w3.org/2000/svg" viewBox="0 0 48 48"><title>24-Firewall</title><g id="_24-Firewall" data-name="24-Firewall"><path d="M45,48H3a3,3,0,0,1-3-3V3A3,3,0,0,1,3,0H45a3,3,0,0,1,3,3V45A3,3,0,0,1,45,48ZM3,2A1,1,0,0,0,2,3V45a1,1,0,0,0,1,1H45a1,1,0,0,0,1-1V3a1,1,0,0,0-1-1Z"/><rect x="1" y="23" width="11" height="2"/><rect x="1" y="15" width="10" height="2"/><rect x="1" y="8" width="14" height="2"/><rect x="1" y="38" width="8" height="2"/><rect x="1" y="31" width="11" height="2"/><rect x="12" y="1" width="2" height="8"/><rect x="8.031" y="9" width="2" height="7" transform="translate(-0.111 0.081) rotate(-0.512)"/><rect x="39.031" y="9" width="2" height="7" transform="translate(-0.11 0.358) rotate(-0.512)"/><rect x="23" y="1" width="2" height="3"/><rect x="34" y="1" width="2" height="8"/><rect x="8.031" y="24" width="2" height="8" transform="translate(-0.218 0.071) rotate(-0.448)"/><rect x="39.031" y="24" width="2" height="8" transform="translate(-0.218 0.314) rotate(-0.448)"/><rect x="7" y="39" width="2" height="8"/><rect x="39.031" y="39" width="2" height="7" transform="translate(-0.378 0.359) rotate(-0.512)"/><path d="M30,28H18a3,3,0,0,1-3-3V14a1,1,0,0,1,1-1H32a1,1,0,0,1,1,1V25A3,3,0,0,1,30,28ZM17,15V25a1,1,0,0,0,1,1H30a1,1,0,0,0,1-1V15Z"/><path d="M30,14H28V8.007c-.011.007-.062-.009-.063-.009L20.009,8c.009.007,0,.044-.009.08V14H18V8a2.045,2.045,0,0,1,2-2h8a2.017,2.017,0,0,1,2,2Z"/><rect x="13" y="17" width="22" height="2"/><rect x="23" y="21" width="2" height="2"/><rect x="33" y="8" width="14" height="2"/><rect x="37" y="15" width="10" height="2"/><rect x="36" y="23" width="11" height="2"/><rect x="36" y="31" width="11" height="2"/><rect x="39" y="38" width="8" height="2"/><path d="M15,39H13V35a1.959,1.959,0,0,1,2-2h8V30h2v3a1.959,1.959,0,0,1-2,2H15Z"/><path d="M35,39H33V35H27V33h6a1.959,1.959,0,0,1,2,2Z"/><path d="M14,44a3,3,0,1,1,3-3A3,3,0,0,1,14,44Zm0-4a1,1,0,1,0,1,1A1,1,0,0,0,14,40Z"/><path d="M24,44a3,3,0,1,1,3-3A3,3,0,0,1,24,44Zm0-4a1,1,0,1,0,1,1A1,1,0,0,0,24,40Z"/><path d="M34,44a3,3,0,1,1,3-3A3,3,0,0,1,34,44Zm0-4a1,1,0,1,0,1,1A1,1,0,0,0,34,40Z"/><rect x="23" y="36" width="2" height="3"/></g></svg>