<svg xmlns="http://www.w3.org/2000/svg" viewBox="0 0 48 48"><title>25-Folder Protection</title><g id="_25-Folder_Protection" data-name="25-Folder Protection"><path d="M41.013,11.006S41,9.017,41,8.018L23,8V6H41.013A1.945,1.945,0,0,1,43,7.987c0,.984.013,3.007.013,3.007Z"/><path d="M17,48H3a3,3,0,0,1-3-3V3A3,3,0,0,1,3,0H21a3,3,0,0,1,3,3v7H45a3,3,0,0,1,3,3v5H46V13a1,1,0,0,0-1-1H23a1,1,0,0,1-1-1V3a1,1,0,0,0-1-1H3A1,1,0,0,0,2,3V45a1,1,0,0,0,1,1H17Z"/><rect x="9" y="10" width="14" height="2"/><path d="M26,48a.99.99,0,0,1-.419-.092l-9-4.154A1,1,0,0,1,16,42.846V25a1,1,0,0,1,1-1h7v2H18V42.206L26,45.9l8-3.692V41h2v1.846a1,1,0,0,1-.581.908l-9,4.154A.99.99,0,0,1,26,48Z"/><rect x="14" y="28" width="10" height="2"/><rect x="25" y="36" width="2" height="11"/><path d="M37,39A11,11,0,1,1,48,28,11.013,11.013,0,0,1,37,39Zm0-20a9,9,0,1,0,9,9A9.011,9.011,0,0,0,37,19Z"/><path d="M35,33a1,1,0,0,1-.707-.293l-3-3,1.414-1.414L35,30.586l7.293-7.293,1.414,1.414-8,8A1,1,0,0,1,35,33Z"/></g></svg>