<svg xmlns="http://www.w3.org/2000/svg" viewBox="0 0 48 48"><title>28-Email Security</title><g id="_28-Email_Security" data-name="28-Email Security"><rect x="3.308" y="34.5" width="18.385" height="2" transform="translate(-21.441 19.237) rotate(-45)"/><rect x="34.5" y="26.308" width="2" height="18.385" transform="translate(-14.705 35.5) rotate(-45)"/><path d="M45,48H3a3,3,0,0,1-3-3V17a3,3,0,0,1,3-3H7v2H3a1,1,0,0,0-1,1V45a1,1,0,0,0,1,1H45a1,1,0,0,0,1-1V24h2V45A3,3,0,0,1,45,48Z"/><path d="M24,34a.989.989,0,0,1-.611-.209l-22-17,1.222-1.584L24,31.736l8.4-6.488,1.223,1.582-9.008,6.961A.989.989,0,0,1,24,34Z"/><path d="M8,20H6V2A2,2,0,0,1,8,0H28V2H8Z"/><path d="M43,23H31a3,3,0,0,1-3-3V9a1,1,0,0,1,1-1H45a1,1,0,0,1,1,1V20A3,3,0,0,1,43,23ZM30,10V20a1,1,0,0,0,1,1H43a1,1,0,0,0,1-1V10Z"/><path d="M43,9H41V3.007c-.015.007-.062-.009-.063-.009L33.009,3c.009.007,0,.044-.009.08V9H31V3a2.046,2.046,0,0,1,2-2h8a2.017,2.017,0,0,1,2,2Z"/><rect x="26" y="12" width="22" height="2"/><rect x="36" y="16" width="2" height="2"/><path d="M15,13a4,4,0,1,1,4-4A4,4,0,0,1,15,13Zm0-6a2,2,0,1,0,2,2A2,2,0,0,0,15,7Z"/><rect x="11" y="15" width="14" height="2"/><rect x="17" y="19" width="8" height="2"/><rect x="23" y="23" width="2" height="2"/><rect x="19" y="23" width="2" height="2"/></g></svg>