<svg xmlns="http://www.w3.org/2000/svg" viewBox="0 0 48 48"><title>31-Padlock</title><g id="_31-Padlock" data-name="31-Padlock"><path d="M40,48H8a3,3,0,0,1-3-3V17a3,3,0,0,1,3-3H40a3,3,0,0,1,3,3V45A3,3,0,0,1,40,48ZM8,16a1,1,0,0,0-1,1V45a1,1,0,0,0,1,1H40a1,1,0,0,0,1-1V17a1,1,0,0,0-1-1Z"/><path d="M39,13H37V12H11v1H9V11a1,1,0,0,1,1-1H38a1,1,0,0,1,1,1Z"/><path d="M35,11H33V3a1,1,0,0,0-1-1H16a1,1,0,0,0-1,1v8H13V3a3,3,0,0,1,3-3H32a3,3,0,0,1,3,3Z"/><path d="M26,41H22a1,1,0,0,1-1-1V33.979a5,5,0,1,1,6,0V40A1,1,0,0,1,26,41Zm-3-2h2V33.445a1,1,0,0,1,.5-.864A2.968,2.968,0,0,0,27,30a3,3,0,0,0-6,0,2.968,2.968,0,0,0,1.5,2.581,1,1,0,0,1,.5.864Z"/><rect x="3" y="19" width="42" height="2"/><path d="M14,44H10a1,1,0,0,1-1-1V39h2v3h3Z"/></g></svg>