<svg xmlns="http://www.w3.org/2000/svg" viewBox="0 0 48 48"><title>32-Padlock</title><g id="_32-Padlock" data-name="32-Padlock"><path d="M27,48H6a3,3,0,0,1-3-3V17a3,3,0,0,1,3-3H38a3,3,0,0,1,3,3v5H39V17a1,1,0,0,0-1-1H6a1,1,0,0,0-1,1V45a1,1,0,0,0,1,1H27Z"/><path d="M37,13H35V12H9v1H7V11a1,1,0,0,1,1-1H36a1,1,0,0,1,1,1Z"/><path d="M33,11H31V3a1,1,0,0,0-1-1H14a1,1,0,0,0-1,1v8H11V3a3,3,0,0,1,3-3H30a3,3,0,0,1,3,3Z"/><path d="M23,41H20a1,1,0,0,1-1-1V33.979A4.986,4.986,0,0,1,22,25v2a3,3,0,0,0-3,3,2.968,2.968,0,0,0,1.5,2.581,1,1,0,0,1,.5.864V39h2Z"/><rect x="1" y="19" width="42" height="2"/><path d="M12,44H8a1,1,0,0,1-1-1V39H9v3h3Z"/><path d="M35,48a.99.99,0,0,1-.419-.092l-9-4.154A1,1,0,0,1,25,42.846V25a1,1,0,0,1,1-1H44a1,1,0,0,1,1,1V42.846a1,1,0,0,1-.581.908l-9,4.154A.99.99,0,0,1,35,48Zm-8-5.794L35,45.9l8-3.692V26H27Z"/><rect x="23" y="28" width="24" height="2"/><rect x="34" y="34" width="2" height="13"/><rect x="30" y="33" width="10" height="2"/></g></svg>