<svg xmlns="http://www.w3.org/2000/svg" viewBox="0 0 48 48"><title>36-Security-Protection</title><g id="_36-Security-Protection" data-name="36-Security-Protection"><path d="M24,48a.991.991,0,0,1-.371-.071l-20-8A1,1,0,0,1,3,39V3A3,3,0,0,1,6,0H42a3,3,0,0,1,3,3V39a1,1,0,0,1-.629.929l-20,8A.991.991,0,0,1,24,48ZM5,38.323l19,7.6,19-7.6V3a1,1,0,0,0-1-1H6A1,1,0,0,0,5,3Z"/><rect x="1" y="5" width="46" height="2"/><path d="M24,43a1.017,1.017,0,0,1-.352-.063l-16-6A1,1,0,0,1,7,36V9H9V35.307l15,5.625,15-5.625V9h2V36a1,1,0,0,1-.648.937l-16,6A1.017,1.017,0,0,1,24,43Z"/><path d="M30,32H18a3,3,0,0,1-3-3V18a1,1,0,0,1,1-1H32a1,1,0,0,1,1,1V29A3,3,0,0,1,30,32ZM17,19V29a1,1,0,0,0,1,1H30a1,1,0,0,0,1-1V19Z"/><path d="M30,18H28V12.007c-.016.007-.062-.009-.063-.009l-7.928,0c.009.008,0,.044-.009.08V18H18V12a2.046,2.046,0,0,1,2-2h8a2.017,2.017,0,0,1,2,2Z"/><rect x="13" y="21" width="22" height="2"/><rect x="23" y="25" width="2" height="2"/><rect x="23" y="34" width="2" height="8"/></g></svg>