<svg xmlns="http://www.w3.org/2000/svg" viewBox="0 0 48 48"><title>37-Firewall</title><g id="_37-Firewall" data-name="37-Firewall"><path d="M45,48H3a3,3,0,0,1-3-3V3A3,3,0,0,1,3,0H45a3,3,0,0,1,3,3V45A3,3,0,0,1,45,48ZM3,2A1,1,0,0,0,2,3V45a1,1,0,0,0,1,1H45a1,1,0,0,0,1-1V3a1,1,0,0,0-1-1Z"/><rect x="1" y="23" width="11" height="2"/><rect x="1" y="15" width="10" height="2"/><rect x="1" y="8" width="46" height="2"/><rect x="1" y="38" width="16" height="2"/><rect x="1" y="31" width="11" height="2"/><rect x="12" y="1" width="2" height="8"/><rect x="8.031" y="9" width="2" height="7" transform="translate(-0.111 0.081) rotate(-0.511)"/><rect x="39.031" y="9" width="2" height="7" transform="translate(-0.11 0.358) rotate(-0.511)"/><rect x="23" y="1" width="2" height="8"/><rect x="34" y="1" width="2" height="8"/><rect x="8.031" y="24" width="2" height="8" transform="translate(-0.218 0.071) rotate(-0.448)"/><rect x="39.031" y="24" width="2" height="8" transform="translate(-0.217 0.314) rotate(-0.448)"/><rect x="7" y="39" width="2" height="8"/><rect x="39.031" y="39" width="2" height="7" transform="translate(-0.378 0.359) rotate(-0.511)"/><rect x="37" y="15" width="10" height="2"/><rect x="36" y="23" width="11" height="2"/><rect x="36" y="31" width="11" height="2"/><rect x="31" y="38" width="16" height="2"/><path d="M24,38a.987.987,0,0,1-.419-.092l-9-4.154A1,1,0,0,1,14,32.846V15a1,1,0,0,1,1-1H33a1,1,0,0,1,1,1V32.846a1,1,0,0,1-.581.908l-9,4.154A.987.987,0,0,1,24,38Zm-8-5.794L24,35.9l8-3.692V16H16Z"/><rect x="12" y="18" width="24" height="2"/><rect x="23" y="24" width="2" height="13"/><rect x="19" y="23" width="10" height="2"/><rect x="23" y="42" width="2" height="5"/></g></svg>