<svg xmlns="http://www.w3.org/2000/svg" viewBox="0 0 48 48"><title>42-Padlock</title><g id="_42-Padlock" data-name="42-Padlock"><path d="M24,48a1,1,0,0,1-.372-.071l-20-8A1,1,0,0,1,3,39V3A3,3,0,0,1,6,0H42a3,3,0,0,1,3,3V39a1,1,0,0,1-.628.929l-20,8A1,1,0,0,1,24,48ZM5,38.323l19,7.6,19-7.6V3a1,1,0,0,0-1-1H6A1,1,0,0,0,5,3Z"/><rect x="1" y="5" width="46" height="2"/><path d="M24,43a1.008,1.008,0,0,1-.351-.063l-16-6A1,1,0,0,1,7,36V10A1,1,0,0,1,8,9H20v2H9V35.307l15,5.625,15-5.625V11H28V9H40a1,1,0,0,1,1,1V36a1,1,0,0,1-.649.937l-16,6A1.008,1.008,0,0,1,24,43Z"/><rect x="23" y="34" width="2" height="8"/><path d="M26,30H22a1,1,0,0,1-1-1V22.979a5,5,0,1,1,6,0V29A1,1,0,0,1,26,30Zm-3-2h2V22.445a1,1,0,0,1,.5-.864A2.968,2.968,0,0,0,27,19a3,3,0,0,0-6,0,2.968,2.968,0,0,0,1.5,2.581,1,1,0,0,1,.5.864Z"/><rect x="23" y="9" width="2" height="2"/></g></svg>