<svg xmlns="http://www.w3.org/2000/svg" viewBox="0 0 48 48"><title>45-Login</title><g id="_45-Login" data-name="45-Login"><rect x="10" y="37" width="2" height="2"/><rect x="14" y="37" width="2" height="2"/><rect x="10" y="41" width="10" height="2"/><path d="M40,48H8a3,3,0,0,1-3-3V36H7v9a1,1,0,0,0,1,1H40a1,1,0,0,0,1-1V36h2v9A3,3,0,0,1,40,48Z"/><path d="M43,22H41V17a1,1,0,0,0-1-1H8a1,1,0,0,0-1,1v5H5V17a3,3,0,0,1,3-3H40a3,3,0,0,1,3,3Z"/><path d="M39,13H37V12H11v1H9V11a1,1,0,0,1,1-1H38a1,1,0,0,1,1,1Z"/><path d="M35,11H33V3a1,1,0,0,0-1-1H16a1,1,0,0,0-1,1v8H13V3a3,3,0,0,1,3-3H32a3,3,0,0,1,3,3Z"/><rect x="3" y="19" width="42" height="2"/><path d="M41,34H7a1.959,1.959,0,0,1-2-2V26a1.959,1.959,0,0,1,2-2H41a1.959,1.959,0,0,1,2,2v6A1.959,1.959,0,0,1,41,34ZM7,26v6H41V26Z"/><rect x="13" y="28" width="2" height="2"/><rect x="17" y="28" width="2" height="2"/><rect x="21" y="28" width="2" height="2"/><rect x="25" y="28" width="2" height="2"/><rect x="29" y="28" width="2" height="2"/><rect x="33" y="28" width="2" height="2"/><path d="M36,43H30a2,2,0,0,1-2-2V39a2,2,0,0,1,2-2h6a2,2,0,0,1,2,2v2A2,2,0,0,1,36,43Zm-6-4v2h6V39Z"/></g></svg>