<svg xmlns="http://www.w3.org/2000/svg" viewBox="0 0 48 48"><title>6-Email Security</title><g id="_6-Email_Security" data-name="6-Email Security"><rect x="3.308" y="22.5" width="18.385" height="2" transform="translate(-12.956 15.722) rotate(-45)"/><rect x="34.5" y="14.308" width="2" height="18.385" transform="translate(-6.219 31.985) rotate(-45)"/><path d="M45,36H37V34h8a1,1,0,0,0,1-1V5a1,1,0,0,0-1-1H3A1,1,0,0,0,2,5V33a1,1,0,0,0,1,1h8v2H3a3,3,0,0,1-3-3V5A3,3,0,0,1,3,2H45a3,3,0,0,1,3,3V33A3,3,0,0,1,45,36Z"/><path d="M24,22a.994.994,0,0,1-.611-.208l-22-17L2.611,3.208,24,19.736,45.389,3.208l1.222,1.584-22,17A.994.994,0,0,1,24,22Z"/><path d="M30,47H18a3,3,0,0,1-3-3V33a1,1,0,0,1,1-1H32a1,1,0,0,1,1,1V44A3,3,0,0,1,30,47ZM17,34V44a1,1,0,0,0,1,1H30a1,1,0,0,0,1-1V34Z"/><path d="M30,33H28V27.007A.187.187,0,0,1,27.937,27l-7.928,0c.009.007,0,.044-.009.08V33H18V27a2.046,2.046,0,0,1,2-2h8a2.017,2.017,0,0,1,2,2Z"/><rect x="13" y="36" width="22" height="2"/><rect x="23" y="40" width="2" height="2"/></g></svg>