<svg xmlns="http://www.w3.org/2000/svg" viewBox="0 0 48 48"><title>8-File Security</title><g id="_8-File_Security" data-name="8-File Security"><rect x="11" y="6" width="10" height="2"/><rect x="11" y="10" width="2" height="2"/><rect x="15" y="10" width="2" height="2"/><path d="M40,48H39V46h1a1,1,0,0,0,1-1V9.414L33.586,2H8A1,1,0,0,0,7,3V45a1,1,0,0,0,1,1H9v2H8a3,3,0,0,1-3-3V3A3,3,0,0,1,8,0H34a1,1,0,0,1,.707.293l8,8A1,1,0,0,1,43,9V45A3,3,0,0,1,40,48Z"/><path d="M38,10H36a3,3,0,0,1-3-3V1h2V7a1,1,0,0,0,1,1h2Z"/><path d="M30,35H18a3,3,0,0,1-3-3V21a1,1,0,0,1,1-1H32a1,1,0,0,1,1,1V32A3,3,0,0,1,30,35ZM17,22V32a1,1,0,0,0,1,1H30a1,1,0,0,0,1-1V22Z"/><path d="M30,21H28V15.007A.165.165,0,0,1,27.937,15l-7.928,0c.009.007,0,.044-.009.08V21H18V15a2.046,2.046,0,0,1,2-2h8a2.017,2.017,0,0,1,2,2Z"/><rect x="13" y="24" width="22" height="2"/><rect x="23" y="28" width="2" height="2"/><path d="M15,43H13V39a1.959,1.959,0,0,1,2-2h8V34h2v3a1.959,1.959,0,0,1-2,2H15Z"/><path d="M35,43H33V39H27V37h6a1.959,1.959,0,0,1,2,2Z"/><path d="M14,48a3,3,0,1,1,3-3A3,3,0,0,1,14,48Zm0-4a1,1,0,1,0,1,1A1,1,0,0,0,14,44Z"/><path d="M24,48a3,3,0,1,1,3-3A3,3,0,0,1,24,48Zm0-4a1,1,0,1,0,1,1A1,1,0,0,0,24,44Z"/><path d="M34,48a3,3,0,1,1,3-3A3,3,0,0,1,34,48Zm0-4a1,1,0,1,0,1,1A1,1,0,0,0,34,44Z"/><rect x="23" y="40" width="2" height="3"/></g></svg>